<?xml version="1.0" encoding="UTF-8" standalone="no"?>
<svg
   xmlns:dc="http://purl.org/dc/elements/1.1/"
   xmlns:cc="http://creativecommons.org/ns#"
   xmlns:rdf="http://www.w3.org/1999/02/22-rdf-syntax-ns#"
   xmlns:svg="http://www.w3.org/2000/svg"
   xmlns="http://www.w3.org/2000/svg"
   viewBox="0 0 1000 666.66669"
   height="666.66669"
   width="1000"
   xml:space="preserve"
   id="svg2"
   version="1.1"><metadata
     id="metadata8"><rdf:RDF><cc:Work
         rdf:about=""><dc:format>image/svg+xml</dc:format><dc:type
           rdf:resource="http://purl.org/dc/dcmitype/StillImage" /></cc:Work></rdf:RDF></metadata><defs
     id="defs6"><clipPath
       id="clipPath102"
       clipPathUnits="userSpaceOnUse"><path
         id="path100"
         d="m 1571.15,3665.34 c 21.39,5.62 43.72,3.74 65.47,1.27 20.05,-2.28 37.24,-2.76 56.15,-1.14 3.49,0.3 -4.01,-44.35 -4.86,-47.93 -4.11,-17.56 -11.01,-34.9 -24.26,-48.51 -13.03,-13.37 -29.28,-20.46 -47.19,-26.35 -21.72,-7.14 -58.05,-12.73 -78.75,-1.19 -11.37,6.34 -20.53,18.97 -23.7,38.63 -5.14,32 5.8,55.3 22.44,68.1 11.3,8.68 22.9,14.03 34.7,17.12" /></clipPath><clipPath
       id="clipPath126"
       clipPathUnits="userSpaceOnUse"><path
         id="path124"
         d="m 1210.98,3697.05 c -34.99,6.33 -71.53,4.21 -107.11,1.43 -32.82,-2.58 -60.94,-3.11 -91.86,-1.29 -5.72,0.34 6.56,-49.99 7.93,-54.03 17.61,-51.74 75.66,-80.07 133.32,-89.72 52.22,-8.75 137.63,-10.56 151.2,47.54 8.42,36.07 -9.48,62.34 -36.72,76.76 -18.48,9.79 -37.46,15.81 -56.76,19.31" /></clipPath></defs><g
     transform="matrix(1.3333333,0,0,-1.3333333,0,666.66667)"
     id="g10"><g
       transform="scale(0.1)"
       id="g12"><path
         id="path14"
         style="fill:#fde4d5;fill-opacity:1;fill-rule:nonzero;stroke:none"
         d="M 0,0 H 7500 V 5000 H 0 Z" /><path
         id="path16"
         style="fill:#f36333;fill-opacity:1;fill-rule:nonzero;stroke:none"
         d="M 7500,0 H 4611.71 V 630.512 H 7500 V 0" /><path
         id="path18"
         style="fill:#d13e28;fill-opacity:1;fill-rule:nonzero;stroke:none"
         d="M 4611.71,630.512 V 106.301 L 7500,327.57 V 630.512 H 4611.71" /><path
         id="path20"
         style="fill:#f36333;fill-opacity:1;fill-rule:nonzero;stroke:none"
         d="M 7500,457.832 H 4351.1 v 198.84 H 7500 v -198.84" /><path
         id="path22"
         style="fill:#f7923e;fill-opacity:1;fill-rule:nonzero;stroke:none"
         d="m 5642.5,457.832 h -141.28 l 154.36,198.84 h 141.28 L 5642.5,457.832" /><path
         id="path24"
         style="fill:#f7923e;fill-opacity:1;fill-rule:nonzero;stroke:none"
         d="m 5809.93,457.832 h -70.63 l 154.35,198.84 h 70.64 l -154.36,-198.84" /><path
         id="path26"
         style="fill:#ed7032;fill-opacity:1;fill-rule:nonzero;stroke:none"
         d="M 7183.31,4846.55 H 316.691 c -77.082,0 -139.566,-62.49 -139.566,-139.57 V 992.898 c 0,-77.078 62.484,-139.566 139.566,-139.566 H 7183.31 c 77.08,0 139.57,62.488 139.57,139.566 V 4706.98 c 0,77.08 -62.49,139.57 -139.57,139.57" /><path
         id="path28"
         style="fill:#1c3231;fill-opacity:1;fill-rule:nonzero;stroke:none"
         d="M 7055.24,4698.77 H 444.762 c -66.203,0 -119.864,-53.66 -119.864,-119.86 V 1120.97 c 0,-66.19 53.661,-119.86 119.864,-119.86 H 7055.24 c 66.19,0 119.87,53.67 119.87,119.86 v 3457.94 c 0,66.2 -53.68,119.86 -119.87,119.86" /><path
         id="path30"
         style="fill:#25554a;fill-opacity:1;fill-rule:nonzero;stroke:none"
         d="M 7175.1,1001.11 H 597.461 v 3177.64 c 0,118.75 96.262,215 215,215 H 7175.1 V 1001.11" /><path
         id="path32"
         style="fill:#96ab27;fill-opacity:1;fill-rule:nonzero;stroke:none"
         d="m 7093.13,1531.11 c -37.86,27.77 -117.69,-69.64 -135.62,-94.36 -22.97,-31.67 -39.86,-66 -52.09,-101.95 -7.96,50.83 -24.38,99.99 -44.84,147.65 51.8,54.69 118.18,115.73 149.89,185.25 15.84,34.73 17.19,70.54 12.57,107.92 -2.43,19.7 -0.84,42.81 -21.74,50.09 -59.91,20.88 -108.68,-77.6 -125.72,-117.17 -24.83,-57.62 -38.34,-121.78 -33.84,-184.65 -7.25,15.1 -14.73,30.07 -22.38,44.89 -39.83,77.03 -70.92,152.74 -84.67,234.62 48.32,-5.68 105.63,57.62 133.77,86.6 39.82,41.04 94.88,117.21 78.69,178.88 -1.4,5.29 -6,7.85 -11.04,8.4 -50.13,5.49 -116.19,-31 -147.67,-68.23 -34.02,-40.19 -51.6,-91.83 -60.63,-143.48 -0.65,12.24 -1.01,24.62 -0.83,37.21 1.19,84.63 19.55,169.89 52.12,248.59 l 1.83,-0.12 c 29.65,1.04 49.32,16 70.57,35.62 29.28,27.03 57.65,55.78 82.64,86.85 44.03,54.75 74.1,118.38 73.49,189.61 -0.06,7.29 -6.45,10.8 -12.94,9.86 -66.04,-9.54 -123.14,-47.72 -162.95,-100.65 -39.59,-52.64 -77.57,-138.92 -71.89,-206.27 0.2,-2.3 1.16,-5.05 3.48,-6.06 0.93,-0.41 1.85,-0.81 2.76,-1.22 -22.81,-46.57 -38.98,-95.63 -49.01,-145.85 -10.06,56.24 -33.63,109 -77.2,148.23 -21.71,19.55 -47.12,34.66 -74.87,43.84 -12.25,4.04 -54.79,18.46 -65.87,5.44 -11.65,-13.67 5.49,-41.05 9.8,-53.85 10.89,-32.41 20.33,-66.63 39.01,-95.66 34.95,-54.29 94.38,-83.58 156.96,-91.43 1.95,-0.25 3.62,-0.03 5.04,0.5 -6.02,-47.5 -6.53,-95.73 -1.69,-143.66 -1.54,-3.85 -1.37,-8.41 1.37,-12.05 6.72,-55.96 20.71,-111.4 41.94,-164.67 25.87,-64.88 58.88,-127.4 83.86,-192.38 -32.18,36.67 -70.36,68.4 -103.06,92.81 -21.51,16.08 -43.18,31.61 -64.81,47 8.64,51.44 7.82,103.38 -5.73,153.99 -4.63,17.27 -19.42,87.07 -49.1,79.37 -30.59,-7.94 -26.64,-82.22 -24.31,-103.76 3.9,-36.2 18.09,-70.03 37.92,-100.26 -35.13,25.1 -84.35,51.23 -111.04,85.57 -21.85,28.12 -22.63,65.47 -23.77,99.27 -1.9,56.57 -12.22,107.6 -52.16,148.75 -34.05,35.05 -80.54,54.56 -126.7,67.93 -7.08,2.07 -12.19,-4.58 -11.06,-11.05 12.3,-70.1 25.94,-142.1 63.26,-203.86 26.22,-43.38 67.97,-62.34 107.71,-90.49 48.37,-34.24 92.04,-75.62 140.55,-110.32 -41.31,14.32 -86.38,22.3 -129.44,15.37 -44.95,-7.23 -84.9,-34.13 -124,-55.74 -7.51,-4.15 -7.32,-15.51 0,-19.71 98.12,-56.32 213.28,-45.98 300.47,25.61 l 0.51,0.51 c 51.59,-37.17 104.51,-74.38 147.69,-121.44 23.6,-25.72 40.44,-51.76 52.23,-79.4 5.77,-24.37 9.81,-49.28 11.22,-75.01 4.35,-80.03 -18.86,-152.07 -50.5,-221.71 0.15,1.95 0.41,3.91 0.48,5.87 11.98,79.13 3.33,158.83 -29.74,232.97 -15.2,34.09 -36.13,66.71 -67.2,88.39 -38.23,26.68 -86.53,32.87 -126.61,56.12 -7.21,4.19 -18.75,0.68 -20.42,-8.3 -13.71,-73.84 10.51,-151.31 69.73,-199.43 35.78,-29.06 82.97,-41.98 112.39,-78.84 32.05,-40.15 33.56,-86.1 28.76,-134.85 -0.57,-5.76 3.91,-9.76 9.01,-10.95 -12.66,-25.22 -25.83,-50.29 -38.6,-75.481 -12.33,-24.328 22.73,-45.32 36.82,-21.52 49.06,82.871 94.47,174.071 109.51,270.351 58.89,39.7 108.46,91.32 144.1,153.06 18.16,31.44 32.66,65.1 42.76,99.97 5.33,18.38 21.65,57.61 0.83,72.87" /><path
         id="path34"
         style="fill:#c7e133;fill-opacity:1;fill-rule:nonzero;stroke:none"
         d="m 6777.14,1348.83 c -13.41,23 -30.26,43.9 -52.29,59.28 l -2.16,1.42 -72.78,-154.84 c 19.85,-15.54 42.89,-26.56 64.42,-39.51 l 62.81,133.65" /><path
         id="path36"
         style="fill:#c7e133;fill-opacity:1;fill-rule:nonzero;stroke:none"
         d="m 6773.47,1517.6 -8.76,-18.64 c 15.27,-13.24 29.99,-27.07 43.65,-41.96 4.5,-4.9 8.67,-9.82 12.68,-14.75 l 9.61,20.44 c -18.06,19.97 -37.72,38.41 -57.18,54.91" /><path
         id="path38"
         style="fill:#c7e133;fill-opacity:1;fill-rule:nonzero;stroke:none"
         d="m 6832.1,1465.77 169.18,359.95 c -59.9,20.84 -108.66,-77.61 -125.7,-117.18 -24.83,-57.62 -38.34,-121.78 -33.84,-184.65 -7.25,15.1 -14.73,30.07 -22.38,44.89 -3.88,7.49 -7.59,14.96 -11.29,22.43 l -15.91,-33.87 c 13.91,-30.35 27.73,-60.72 39.94,-91.57" /><path
         id="path40"
         style="fill:#c7e133;fill-opacity:1;fill-rule:nonzero;stroke:none"
         d="m 7004.97,1491.49 c -21.59,-21.3 -39.96,-44.39 -47.46,-54.74 -22.97,-31.67 -39.86,-66 -52.09,-101.95 -2.35,15.08 -5.54,29.99 -9.28,44.78 l -26.15,-55.65 c 0.78,-7.06 1.43,-14.16 1.82,-21.34 2.39,-43.97 -3.57,-85.51 -14.64,-125.58 l 147.8,314.48" /><path
         id="path42"
         style="fill:#c7e133;fill-opacity:1;fill-rule:nonzero;stroke:none"
         d="m 6821.54,1220.85 -39.35,-83.73 c 10.09,-29.53 9.76,-61.27 6.51,-94.31 -0.26,-2.73 0.63,-5.06 2.16,-6.88 l 33.51,71.29 c 4.04,38.09 3.26,76.2 -2.83,113.63" /><path
         id="path44"
         style="fill:#c7e133;fill-opacity:1;fill-rule:nonzero;stroke:none"
         d="m 6508.94,2156.8 c 5.9,-17.58 11.44,-35.68 18.2,-53.22 l 46.32,98.57 c -2.8,1.06 -5.61,2.11 -8.45,3.06 -9.31,3.07 -36.1,12.11 -53.3,10.57 l -14.27,-30.37 c 3.28,-10.82 9.19,-21.79 11.5,-28.61" /><path
         id="path46"
         style="fill:#c7e133;fill-opacity:1;fill-rule:nonzero;stroke:none"
         d="m 6439.37,1960.19 c -10.46,10.77 -22.18,19.92 -34.61,28.01 l -61.83,-131.54 c 6.29,-14.9 13.49,-29.44 21.94,-43.45 4.77,-7.88 10.05,-14.93 15.74,-21.4 l 71.93,153.05 c -4,5.25 -8.36,10.36 -13.17,15.33" /><path
         id="path48"
         style="fill:#c7e133;fill-opacity:1;fill-rule:nonzero;stroke:none"
         d="m 6359.69,1572.03 c -7.51,-4.15 -7.32,-15.51 0,-19.71 5.82,-3.34 11.71,-6.4 17.63,-9.28 l 24.97,53.13 c -14.43,-7.96 -28.58,-16.38 -42.6,-24.14" /><path
         id="path50"
         style="fill:#c7e133;fill-opacity:1;fill-rule:nonzero;stroke:none"
         d="m 6596.87,2010.16 61.95,131.81 c -5.86,6.76 -12.13,13.26 -18.94,19.4 -1.4,1.26 -2.86,2.45 -4.29,3.68 l -63.09,-134.23 c 7.58,-7.58 15.71,-14.49 24.37,-20.66" /><path
         id="path52"
         style="fill:#c7e133;fill-opacity:1;fill-rule:nonzero;stroke:none"
         d="m 6492.51,1788.12 c -0.47,7.85 -0.72,15.67 -0.98,23.32 -0.47,13.77 -1.44,27.21 -3.21,40.28 l -49.95,-106.29 c 8.6,-5.6 17.34,-11.17 26.05,-17.07 l 28.09,59.76" /><path
         id="path54"
         style="fill:#c13763;fill-opacity:1;fill-rule:nonzero;stroke:none"
         d="m 6940.14,656.672 h -324.73 l -146.82,568.298 h 618.35 l -146.8,-568.298" /><path
         id="path56"
         style="fill:#f3636a;fill-opacity:1;fill-rule:nonzero;stroke:none"
         d="m 6914.51,1224.97 h -120.6 L 6668.67,656.672 h 120.62 l 125.22,568.298" /><path
         id="path58"
         style="fill:#f3636a;fill-opacity:1;fill-rule:nonzero;stroke:none"
         d="m 7004.97,1224.97 h -60.3 L 6819.43,656.672 h 60.32 l 125.22,568.298" /><path
         id="path60"
         style="fill:#9d1d53;fill-opacity:1;fill-rule:nonzero;stroke:none"
         d="M 1037.79,116.602 C 1043.18,77.582 1049.66,38.7305 1056.8,0 h 784.33 c 15.17,277.48 -7.17,556.879 -63.21,829.121 -21.28,103.379 -62.23,277.839 -191.24,284.329 -169.72,8.52 -334.63,-51 -494.13,-109.65 -41.3,-15.191 -82.59,-30.37 -123.89,-45.562 -6.097,-2.226 -12.39,-4.609 -17.015,-9.16 -8.399,-8.277 -9.157,-21.367 -9.086,-33.156 0.625,-112.84 28.238,-223.531 45.578,-335.031 23.913,-153.832 28.343,-310.09 49.653,-464.289" /><path
         id="path62"
         style="fill:#621039;fill-opacity:1;fill-rule:nonzero;stroke:none"
         d="m 1192.04,0 h 105.97 c 9.4,98.4688 28.43,195.77 58.17,290.59 22.03,70.25 47.13,95.43 102.53,136.898 63.49,47.532 121.67,108.793 144.77,183.891 2.04,6.621 3.81,13.351 5.27,20.191 -73.51,-47.039 -152.35,-85.73 -234.5,-115.218 -39.82,-14.301 -81.45,-29.032 -123.3,-35.793 -30.43,-4.93 -50.37,-3.289 -68.39,-35.161 -22.9,-40.507 -0.35,-141.277 0.6,-187.046 1.8,-86.082 3.63,-172.3911 8.88,-258.352" /><path
         id="path64"
         style="fill:#9d1d53;fill-opacity:1;fill-rule:nonzero;stroke:none"
         d="m 1264.08,0 7.04,1407.68 c -0.32,4.41 -0.75,9.11 -3.18,12.57 -3.26,4.67 -9.05,5.66 -14.26,6.25 -142.61,16.27 -260.559,-7.37 -402.645,-27.18 C 686.898,1191.32 518.246,974.512 444.711,707.68 381.801,479.398 394.836,235.48 441.879,0 h 822.201" /><path
         id="path66"
         style="fill:#0c1018;fill-opacity:1;fill-rule:nonzero;stroke:none"
         d="m 1699.33,3290.43 c -3.37,43.35 -5.59,86.79 -6.66,130.26 -1.39,55.89 -1.11,111.91 1.53,167.76 2.3,48.72 21.35,90.25 34.12,137.12 20.66,75.8 26.39,155.01 24.99,233.56 -0.82,45.35 -4.02,91 -15.59,134.85 -19,72.02 -60.93,137.81 -118.2,185.45 -73.18,60.86 -167.75,90.5 -261.92,104.33 -270,39.63 -572.616,-37.62 -753.889,-250.13 -65.906,-77.28 -126.859,-169 -147.277,-269.37 -45.911,-225.7 0.64,-470.2 -90.473,-681.73 245.68,-124.91 484.055,-287.8 758.329,-314.87 204.94,-20.23 416.85,41.79 578.55,169.32 6.7,5.29 13.5,10.9 17.43,18.47 6.21,11.95 4.15,26.32 2.05,39.61 -10.25,64.78 -17.93,129.97 -22.99,195.37" /><path
         id="path68"
         style="fill:#f69362;fill-opacity:1;fill-rule:nonzero;stroke:none"
         d="m 3061.54,2470.8 c 0.6,21.38 -10.11,44.37 -30.01,52.2 7.96,12.6 7.75,29.88 -0.52,42.28 -8.28,12.41 -24.15,19.24 -38.85,16.73 12.18,6.14 14.82,24.06 7.4,35.51 -7.42,11.45 -21.9,16.69 -35.55,16.54 -13.63,-0.15 -26.77,-4.84 -39.6,-9.48 -29.23,-10.56 -58.47,-21.12 -87.71,-31.69 16.71,31.77 34.7,64.97 64.96,84.29 22.65,14.47 49.81,19.56 75.39,27.86 25.57,8.29 51.76,21.64 63.9,45.63 4.39,8.69 6.68,18.43 6.62,28.16 -51.13,-5.94 -102.31,-11.89 -152.97,-21.01 -12.69,-2.28 -25.52,-4.82 -37.05,-10.6 -13.21,-6.63 -24.01,-17.18 -34.23,-27.87 -60.47,-63.27 -103.67,-136.48 -141.49,-214.7 -34.4,-71.13 -28.35,-163.09 -49.49,-239.43 -2.24,-8.08 -9.16,-15.84 -18.66,-23.4 -178.21,-86.76 -543.55,-175.47 -617.42,-231.17 0,0 -231.91,312.73 -333.23,618.79 l -497.35,-10.48 c 10.74,-47.19 27.88,-95.86 55.36,-132.29 75.5,-100.14 586.77,-833.25 697.62,-839.7 103.08,-5.99 555.64,310.26 754.96,435.17 16.8,10.53 35.95,17.16 55.76,17.65 2.23,0.06 4.46,0.04 6.7,-0.03 10.57,-0.4 21.12,-2.38 31.67,-1.56 23.95,1.85 44.92,18.06 58.43,37.92 13.51,19.86 20.77,43.2 27.84,66.16 6.86,22.26 42.25,174.2 61.01,171.09 8.68,-1.45 14.87,-8.89 22.11,-13.9 17.87,-12.34 43.1,-9.23 61.45,2.4 18.35,11.65 31.06,30.24 41.95,49.04 10.72,18.5 20.41,38.51 21,59.89" /><path
         id="path70"
         style="fill:#ea524e;fill-opacity:1;fill-rule:nonzero;stroke:none"
         d="m 2343.34,1868.08 c -16.64,-4.53 -33.24,-9.21 -49.76,-14.19 -40.66,-12.27 -87.4,-25.2 -123.22,-2.37 -51.51,32.84 -40.73,101.6 -21.04,149.1 14.21,34.27 23.44,55.25 19.69,82.04 -80.69,-27.23 -145.95,-51.8 -172.75,-72.01 0,0 -231.91,312.73 -333.23,618.79 l -497.35,-10.48 c 10.74,-47.19 27.88,-95.86 55.36,-132.29 75.5,-100.14 586.77,-833.25 697.62,-839.7 60.93,-3.54 244,105.53 424.68,221.11" /><path
         id="path72"
         style="fill:#ffffff;fill-opacity:1;fill-rule:nonzero;stroke:none"
         d="m 3060.7,2832.08 -43.41,68.66 c -4.79,7.58 -16.27,6.01 -18.85,-2.58 l -114.95,-382.33 c -1.66,-5.53 1.48,-11.37 7,-13.03 l 58.74,-17.66 c 5.54,-1.66 11.37,1.47 13.03,7 l 99.62,331.35 c 0.87,2.9 0.44,6.04 -1.18,8.59" /><path
         id="path74"
         style="fill:#f27450;fill-opacity:1;fill-rule:nonzero;stroke:none"
         d="m 2827.91,2573.52 c 13.09,5.73 27.23,8.53 41.13,11.87 40.01,9.62 78.86,24.05 115.46,42.87 6.69,-14.64 2.03,-32.46 -7.56,-45.38 -9.58,-12.93 -23.37,-21.99 -36.85,-30.77 -29.55,-19.24 -82.35,-37.76 -82.17,-78.78 0.07,-14.19 4.23,-28 7.06,-41.89 9.34,-45.84 4.01,-94.56 -15.03,-137.28 -16.17,-36.3 -46.34,-70.59 -85.88,-74.52 -8.85,-0.88 -18.25,-0.05 -25.76,4.73 -55.22,35.18 -46.42,133.22 -36.39,187 13.59,72.88 57.63,132.11 125.99,162.15" /><path
         id="path76"
         style="fill:#fcce7b;fill-opacity:1;fill-rule:nonzero;stroke:none"
         d="m 1547.16,2888.72 c -75.06,23.01 -163.89,29.29 -231.66,21.5 -21.88,-2.51 -68.66,-5.69 -85.42,-21.48 -15.79,-14.86 -18.98,-59.16 -22.38,-79.82 -10.26,-62.39 -8.08,-126.4 1.07,-188.78 12.98,-88.47 39.67,-174.25 64.55,-260.13 53.25,-183.79 98.65,-369.84 136.04,-557.5 108.51,1.28 216.44,35.05 306.34,95.84 52.08,35.21 97.78,78.91 143.19,122.36 34.7,33.21 133.94,124 98.21,180.04 -16.43,25.76 -54.89,39.97 -74.39,66.56 -23.12,31.54 -38.07,68.67 -49.43,105.82 -26.54,86.76 -42.87,175.78 -72.88,261.92 -29.82,85.61 -52.13,169.17 -134.98,219.7 -22.76,13.88 -49.5,25.15 -78.26,33.97" /><path
         id="path78"
         style="fill:#f7964f;fill-opacity:1;fill-rule:nonzero;stroke:none"
         d="m 1957.09,2200.75 c -1.02,1.61 -2.36,3.06 -3.55,4.58 -40.96,-44.58 -74.13,-97.26 -119.66,-137.49 -9.11,-8.05 -19.19,-15.81 -31.1,-18.26 -11.92,-2.45 -26.06,1.94 -31.3,12.92 -3.43,7.19 -2.54,15.62 -1.19,23.47 7.43,43.27 26.32,83.77 36.03,126.58 13.25,58.47 9,119.55 -0.57,178.73 -5.95,36.8 -14.26,74.11 -34.06,105.69 -19.17,30.57 -47.81,53.73 -74.87,77.6 -50.09,44.18 -96.38,92.65 -138.24,144.68 -14,17.41 -33.09,58.45 -55.53,64.86 -24.36,6.95 -63.05,-20.84 -82.78,-32.19 -72.31,-41.6 -145.2,-83.65 -211.05,-134.49 13.12,-87.51 39.47,-172.42 64.1,-257.42 53.25,-183.79 98.65,-369.84 136.04,-557.5 108.51,1.28 216.44,35.05 306.34,95.84 52.08,35.21 97.78,78.91 143.19,122.36 34.7,33.21 133.94,124 98.2,180.04" /><path
         id="path80"
         style="fill:#fcce7b;fill-opacity:1;fill-rule:nonzero;stroke:none"
         d="m 753.188,2911.47 h 666.532 c 0,0 138.14,-198.91 222.18,-316.97 71.82,-100.91 178.91,-189.84 162.42,-333.85 -6.57,-57.34 -30.05,-110.71 -57.24,-160.15 -55.56,-101.03 -127.91,-190.74 -175.8,-296.42 -47.88,-105.68 -68.11,-237.03 -15.05,-339.68 13.59,-26.28 31.79,-50.45 38.6,-79.76 5.76,-24.81 2.78,-51.14 7.22,-76.27 8.89,-50.41 45,-101.14 64.47,-148.26 23.22,-56.15 63.09,-107.67 82.88,-163.551 -82.26,-49.571 -159.07,-116.797 -249.77,-147.047 -202.93,-67.672 -440.85,-11.332 -644.626,23.699 -63.781,10.969 -117.801,25.359 -177.777,51.5 -15.821,6.891 -181.481,93.389 -177.653,100.109 81.75,143.68 175.906,276.94 305.172,373.72 -4.875,18.11 -7.281,37.01 -7.113,55.89 10.828,4.33 22.539,5.97 34.004,4.76 -7.047,26.44 -9.699,54.3 -7.789,81.78 12.707,2.35 25.406,4.71 38.105,7.07 -10.742,99.93 -26.348,199.23 -46.711,297.33 -15.558,74.97 -19.644,154.45 -39.668,227.16 -31.359,113.9 -66.84,226.29 -96.441,340.85 l 74.055,498.09" /><path
         id="path82"
         style="fill:#f69362;fill-opacity:1;fill-rule:nonzero;stroke:none"
         d="M 1305.66,2911.47 H 932.855 c 51.071,-82.97 372.565,-308.51 401.195,-320.2 13.65,-5.57 6.25,244.15 -28.39,320.2" /><path
         id="path84"
         style="fill:#f9ab59;fill-opacity:1;fill-rule:nonzero;stroke:none"
         d="m 1383.86,2054.3 c -66.23,-8.51 -136.15,-12.41 -197.26,14.53 -100.81,44.45 -150.19,160.57 -164.24,269.85 -8.5,66.09 -7.54,132.8 -10.92,199.23 -3.11,61.03 -5.57,117.42 -59.881,155.8 -20.403,14.41 -43.922,23.73 -67.496,31.98 -26.141,9.14 -54.344,17.23 -81.188,10.4 -12.992,-3.31 -24.852,-9.96 -36.535,-16.53 -26.531,-14.92 -46.024,-29.05 -52.524,-58.65 -7.996,-36.46 -9.429,-77.67 -15.003,-115.14 -6.563,-44.13 -13.125,-88.26 -19.68,-132.39 29.601,-114.56 65.082,-226.95 96.441,-340.85 20.024,-72.71 24.11,-152.19 39.668,-227.16 20.363,-98.1 35.969,-197.4 46.711,-297.33 -12.699,-2.36 -25.398,-4.72 -38.105,-7.07 -1.91,-27.48 0.742,-55.34 7.789,-81.78 -11.465,1.21 -23.176,-0.43 -34,-4.76 -0.172,-18.88 2.234,-37.78 7.109,-55.89 -129.266,-96.78 -223.422,-230.04 -305.172,-373.72 -3.828,-6.71 161.832,-93.218 177.653,-100.109 59.976,-26.141 113.996,-40.531 177.777,-51.5 33.648,-5.781 68.242,-12.141 103.437,-18.43 -1.003,0.828 -2.003,1.66 -3.011,2.489 -75.453,62.21 -156.625,134.64 -166.582,231.94 -5.578,54.5 13.086,109.35 42.398,155.63 44.043,69.53 118.754,124.98 201.054,124.39 -29.86,8.35 -61.132,17.5 -83.027,39.46 -21.89,21.95 -29.882,61.07 -8.55,83.58 21.898,23.1 60.527,16.98 88.877,2.5 28.36,-14.48 54.68,-35.85 86.36,-39.08 -50.51,47.41 -104.82,103.2 -104.43,172.45 0.38,66.73 54.71,123.52 116.78,148.01 62.07,24.5 130.85,23.49 197.57,22.11 80.26,-1.64 160.52,-3.29 240.78,-4.94 1.54,3.59 3.02,7.23 4.62,10.76 47.89,105.68 120.24,195.39 175.8,296.42 9.74,17.71 18.96,35.95 27.14,54.67 -125.27,-49.64 -256.71,-83.71 -390.36,-100.87" /><path
         id="path86"
         style="fill:#f69362;fill-opacity:1;fill-rule:nonzero;stroke:none"
         d="m 1296.52,3298.99 -18.92,-493.2 h -207.83 l -20.8,493.2 h 247.55" /><path
         id="path88"
         style="fill:#ea524e;fill-opacity:1;fill-rule:nonzero;stroke:none"
         d="m 1280.67,2885.91 15.85,413.08 h -247.55 l 13.23,-313.68 c 53.75,-36.14 111.5,-63.78 170.67,-82.79 14.08,-4.52 30.37,-10.48 47.8,-16.61" /><path
         id="path90"
         style="fill:#f69362;fill-opacity:1;fill-rule:nonzero;stroke:none"
         d="m 1722.03,3903.55 c -10.38,70.38 -30.69,130.62 -84.33,181.47 -20.96,19.86 -42.53,39.34 -66.91,55.2 -70.91,46.11 -157.17,62.13 -240.45,67.9 -70.42,4.88 -141.86,-3.05 -208.74,-24.57 -162.948,-52.46 -295.366,-184.21 -344.037,-342.32 -28.125,-91.37 -28.016,-184.98 -22.184,-278.86 15.984,-256.93 235.156,-413.53 477.341,-468.97 66.97,-15.33 182.22,-53.49 246.8,-19.53 109.18,57.41 212.99,179.69 222.55,301.98 4.34,55.54 -8.68,110.55 -8.68,166.01 0,51.77 14.63,102.32 18.25,154.25 2.11,30.29 14.6,56.71 16.58,86.99 2.6,39.78 -0.37,81.01 -6.19,120.45" /><path
         id="path92"
         style="fill:#0c1018;fill-opacity:1;fill-rule:nonzero;stroke:none"
         d="m 1571.82,3696.29 c 39.92,12.03 81.96,-2.72 122.92,-3.58 3.85,-0.08 18.89,-1.11 20.83,3.93 -25.58,-110.41 -54.02,-127.96 -99.14,-148.09 -25.15,-11.21 -55.26,-21.49 -80.99,-5.3 -12.37,7.78 -22.33,23.34 -25.78,47.6 -5.6,39.49 6.31,68.3 24.42,84.17 12.29,10.76 24.91,17.4 37.74,21.27" /><path
         id="path94"
         style="fill:#ffffff;fill-opacity:1;fill-rule:nonzero;stroke:none"
         d="m 1571.15,3665.34 c 21.39,5.62 43.72,3.74 65.47,1.27 20.05,-2.28 37.24,-2.76 56.15,-1.14 3.49,0.3 -4.01,-44.35 -4.86,-47.93 -4.11,-17.56 -11.01,-34.9 -24.26,-48.51 -13.03,-13.37 -29.28,-20.46 -47.19,-26.35 -21.72,-7.14 -58.05,-12.73 -78.75,-1.19 -11.37,6.34 -20.53,18.97 -23.7,38.63 -5.14,32 5.8,55.3 22.44,68.1 11.3,8.68 22.9,14.03 34.7,17.12" /><g
         id="g96"><g
           clip-path="url(#clipPath102)"
           id="g98"><path
             id="path104"
             style="fill:#a32230;fill-opacity:1;fill-rule:nonzero;stroke:none"
             d="m 1660.21,3598.7 c -3.51,-62.65 -42.64,-111.28 -87.39,-108.62 -44.75,2.67 -78.19,55.61 -74.67,118.25 3.5,62.66 42.63,111.28 87.38,108.62 44.75,-2.66 78.19,-55.6 74.68,-118.25" /><path
             id="path106"
             style="fill:#3e0c19;fill-opacity:1;fill-rule:nonzero;stroke:none"
             d="m 1640.01,3599.9 c -2.63,-47.04 -32.01,-83.55 -65.61,-81.55 -33.6,2 -58.7,41.75 -56.06,88.78 2.63,47.04 32.01,83.55 65.61,81.55 33.59,-2 58.7,-41.75 56.06,-88.78" /><path
             id="path108"
             style="fill:#ffffff;fill-opacity:1;fill-rule:nonzero;stroke:none"
             d="m 1660.24,3616 c -0.95,18.03 -4.97,34.86 -11.38,49.42 6.16,-0.49 12.12,-0.79 18.03,-0.88 14.35,-4.56 24.07,-13.33 24.07,-23.4 0,-11.56 -12.8,-21.41 -30.72,-25.14" /><path
             id="path110"
             style="fill:#f04154;fill-opacity:1;fill-rule:nonzero;stroke:none"
             d="m 1644.3,3614.4 c -1.47,0 -2.93,0.04 -4.36,0.11 -1.31,19.63 -7.47,37.28 -16.91,50.44 3.05,0.89 6.29,1.6 9.67,2.1 1.31,-0.14 2.62,-0.29 3.92,-0.44 4.19,-0.48 8.26,-0.87 12.24,-1.19 6.41,-14.56 10.43,-31.39 11.38,-49.42 -4.97,-1.04 -10.34,-1.6 -15.94,-1.6" /><path
             id="path112"
             style="fill:#8d1937;fill-opacity:1;fill-rule:nonzero;stroke:none"
             d="m 1639.94,3614.51 c -23.72,1.26 -42.29,12.7 -42.29,26.63 0,10.38 10.31,19.37 25.38,23.81 9.44,-13.16 15.6,-30.81 16.91,-50.44" /><path
             id="path114"
             style="fill:#fce1e5;fill-opacity:1;fill-rule:nonzero;stroke:none"
             d="m 1614.21,3549.28 c -0.99,-17.78 -16.82,-31.29 -35.35,-30.19 -18.54,1.11 -32.75,16.4 -31.76,34.18 1,17.77 16.83,31.28 35.36,30.18 18.53,-1.1 32.75,-16.4 31.75,-34.17" /></g></g><path
         id="path116"
         style="fill:#0c1018;fill-opacity:1;fill-rule:nonzero;stroke:none"
         d="m 1209.88,3731.98 c -31.49,6.48 -64.57,4.02 -97.55,1.57 -44.26,-3.3 -88.33,-6.59 -128.076,11.71 -1.649,-35.22 10.254,-68.63 27.386,-99.77 5.6,-10.17 11.84,-20.19 20.33,-28.53 7.76,-7.63 17.22,-13.68 27,-19.06 30.09,-16.52 66.21,-28.23 99.8,-36.91 35.77,-9.26 75.75,-14.66 110.64,0.3 20.23,8.67 36.54,26.03 42.17,53.09 9.16,44.04 -10.32,76.18 -39.94,93.87 -20.11,12.01 -40.76,19.42 -61.76,23.73" /><path
         id="path118"
         style="fill:#ffffff;fill-opacity:1;fill-rule:nonzero;stroke:none"
         d="m 1210.98,3697.05 c -34.99,6.33 -71.53,4.21 -107.11,1.43 -32.82,-2.58 -60.94,-3.11 -91.86,-1.29 -5.72,0.34 6.56,-49.99 7.93,-54.03 17.61,-51.74 75.66,-80.07 133.32,-89.72 52.22,-8.75 137.63,-10.56 151.2,47.54 8.42,36.07 -9.48,62.34 -36.72,76.76 -18.48,9.79 -37.46,15.81 -56.76,19.31" /><g
         id="g120"><g
           clip-path="url(#clipPath126)"
           id="g122"><path
             id="path128"
             style="fill:#a32230;fill-opacity:1;fill-rule:nonzero;stroke:none"
             d="m 1217.63,3619.98 c -4.74,-65.57 -57.67,-116.46 -118.22,-113.68 -60.54,2.79 -105.773,58.2 -101.019,123.77 4.749,65.57 57.669,116.46 118.219,113.68 60.54,-2.78 105.77,-58.2 101.02,-123.77" /><path
             id="path130"
             style="fill:#3e0c19;fill-opacity:1;fill-rule:nonzero;stroke:none"
             d="m 1190.31,3621.24 c -3.56,-49.23 -43.3,-87.44 -88.76,-85.35 -45.45,2.09 -79.41,43.7 -75.84,92.92 3.56,49.23 43.3,87.44 88.75,85.35 45.46,-2.09 79.42,-43.69 75.85,-92.92" /><path
             id="path132"
             style="fill:#ffffff;fill-opacity:1;fill-rule:nonzero;stroke:none"
             d="m 1217.68,3638.09 c -1.35,19.91 -7.33,38.43 -16.86,54.23 32.66,-1.07 58.41,-13.16 58.41,-27.92 0,-12.1 -17.31,-22.4 -41.55,-26.31" /><path
             id="path134"
             style="fill:#f04154;fill-opacity:1;fill-rule:nonzero;stroke:none"
             d="m 1196.12,3636.42 c -1.99,0 -3.96,0.04 -5.9,0.12 -1.77,20.54 -10.11,39.01 -22.88,52.78 8.63,1.96 18.41,3.07 28.78,3.07 1.58,0 3.15,-0.02 4.7,-0.07 9.53,-15.8 15.51,-34.32 16.86,-54.23 -6.73,-1.08 -13.99,-1.67 -21.56,-1.67" /><path
             id="path136"
             style="fill:#8d1937;fill-opacity:1;fill-rule:nonzero;stroke:none"
             d="m 1190.22,3636.54 c -32.09,1.32 -57.21,13.29 -57.21,27.86 0,10.86 13.95,20.28 34.33,24.92 12.77,-13.77 21.11,-32.24 22.88,-52.78" /><path
             id="path138"
             style="fill:#fce1e5;fill-opacity:1;fill-rule:nonzero;stroke:none"
             d="m 1155.41,3568.26 c -1.34,-18.6 -22.76,-32.75 -47.83,-31.59 -25.07,1.15 -44.3,17.16 -42.96,35.76 1.35,18.6 22.77,32.75 47.84,31.59 25.06,-1.15 44.3,-17.16 42.95,-35.76" /></g></g><path
         id="path140"
         style="fill:#f69362;fill-opacity:1;fill-rule:nonzero;stroke:none"
         d="m 731.305,3747.49 c -31.465,33.91 -83.528,57.88 -123.567,34.7 -14.656,-8.49 -25.566,-22.21 -34.437,-36.64 -34.231,-55.62 -41.977,-126.78 -20.524,-188.46 21.457,-61.68 71.692,-112.68 133.047,-135.05 35.938,-13.11 80.031,-15.26 108.871,9.88 22.95,20.01 30.715,52.59 30.785,83.03 0.18,80.92 -39.085,173.16 -94.175,232.54" /><path
         id="path142"
         style="fill:#ea524e;fill-opacity:1;fill-rule:nonzero;stroke:none"
         d="m 650.18,3667.78 c 12.769,6.42 28.859,3.81 40.636,-4.28 11.778,-8.1 19.637,-20.93 24.34,-34.42 0.762,-2.18 0.973,-5.38 -1.238,-6.03 -16.832,12.88 -43.641,5.58 -55.461,-12.01 -11.82,-17.59 -10.387,-41.7 -0.914,-60.66 9.473,-18.95 25.816,-33.56 42.945,-46.05 12.602,-9.19 29.895,-17.6 42.91,-9 7.973,5.26 11.231,15.24 13.243,24.57 10.523,48.83 1.074,101.66 -25.711,143.82 -11.2,17.63 -25.891,33.86 -45.016,42.24 -19.133,8.39 -43.258,7.48 -59.074,-6.16 -13.582,-11.71 -19.043,-30.99 -17.11,-48.82 1.458,-13.44 5.704,-28.06 16.047,-36.41 1.008,19.52 4.731,43.33 24.403,53.21" /><path
         id="path144"
         style="fill:#d32548;fill-opacity:1;fill-rule:nonzero;stroke:none"
         d="m 1281.38,3249.01 c 40.01,-50.84 96.38,-87.14 155.96,-82 24.4,2.11 49.38,11.64 67.97,31.72 18.58,20.07 29.52,51.85 23.48,79.94 -0.54,2.53 -1.26,5.1 -2.78,6.91 -1.76,2.11 -4.33,2.88 -6.78,3.52 -43.31,11.45 -88.48,9.02 -132.97,7.38 -22.51,-0.83 -45.06,-1.56 -67.49,-0.23 -11.1,0.65 -22.17,1.79 -33.13,3.68 -15.18,2.63 -29.18,10.75 -44.4,13.49 13.72,-21.89 24.36,-44.35 40.14,-64.41" /><path
         id="path146"
         style="fill:#ffffff;fill-opacity:1;fill-rule:nonzero;stroke:none"
         d="m 1448.57,3231.12 c -31.82,-7.69 -65.15,4.17 -90.27,20.28 -12.08,7.74 -24.19,17.11 -32.76,27.74 -2.17,2.68 -9.04,18.48 -11.68,18.69 54.08,-4.23 108.72,-3.4 162.59,2.48 3.87,0.42 8.05,0.83 11.48,-0.74 9.77,-4.46 1.84,-32.61 -1.66,-39.45 -6.92,-13.52 -20.65,-24.88 -37.7,-29" /><path
         id="path148"
         style="fill:#ee3659;fill-opacity:1;fill-rule:nonzero;stroke:none"
         d="m 1344.73,3213.89 c 8.66,-12.81 23.24,-21.43 38.64,-22.86 0.98,-0.09 2,-0.15 2.93,0.19 1.03,0.39 1.83,1.23 2.46,2.13 3.15,4.54 2.57,10.92 -0.19,15.7 -2.75,4.78 -7.33,8.23 -12.06,11.09 -8.95,5.42 -48.96,19.12 -31.78,-6.25" /><path
         id="path150"
         style="fill:#9a1441;fill-opacity:1;fill-rule:nonzero;stroke:none"
         d="m 1412.17,3323.03 c -32.36,-0.11 -63.82,-8.48 -96.09,-10.38 -40.72,-2.39 -76.7,7.19 -112.93,20.72 57.17,-39.73 146.78,-65.72 221.79,-67.02 50,-0.87 101.57,10.7 138.9,37.23 -51.34,-1.03 -100.3,19.61 -151.67,19.45" /><path
         id="path152"
         style="fill:#0c1018;fill-opacity:1;fill-rule:nonzero;stroke:none"
         d="m 1806.75,4068.82 c 13.56,-38.08 22.09,-78.43 25.42,-118.64 7.36,-88.73 -6.79,-178.17 -1.96,-267.11 -61.85,4.81 -113.32,52.21 -169.47,81.59 -55.88,29.24 -118.95,41.02 -180.28,33.66 -5.88,-0.71 -12.14,-1.52 -17.43,1.44 -5.88,3.29 -9.09,10.4 -11.76,17.11 -15.57,39.2 -25.72,81.1 -29.97,123.74 -1.69,-47.58 -6.92,-95 -15.62,-141.61 -152.42,32.56 -315.7,-3.86 -445.297,-99.33 -8.492,29.18 -16.988,58.36 -25.481,87.54 3.946,-51.59 0.215,-103.91 -10.996,-154.15 -10.289,42.54 -19.121,85.52 -26.472,128.82 -2.356,-244.92 0.316,-489.9 7.996,-734.69 -55.473,-4.31 -111.258,-3.56 -166.625,2.26 0.812,176.17 33.531,351.36 26.207,527.34 -4.211,101.03 -21.598,201.39 -18.895,302.48 3.5,130.69 50.094,236.98 137.86,322.19 42.726,41.48 97.16,64.45 151.313,82.78 79.16,26.81 160.53,45.49 242.73,55.73 94.26,11.75 189.56,2.66 282.49,-17.08 10.92,-2.31 21.89,-4.65 32.29,-9 12.73,-5.3 24.31,-13.5 35.79,-21.62 30.35,-21.5 64.6,-36.25 91.56,-63.06 38.52,-37.83 67.53,-86.86 86.6,-140.39" /><path
         id="path154"
         style="fill:#131728;fill-opacity:1;fill-rule:nonzero;stroke:none"
         d="m 1034.72,4058.93 c 35.1,6.44 66.74,25.52 94.43,48.03 15.77,-25.02 46.03,-37.92 75.53,-40.06 29.5,-2.14 58.8,4.93 87.53,11.94 49.18,12 104.69,29.02 125.74,75.05 23.68,-31.12 62.77,-49.89 101.87,-48.91 39.1,1 77.2,21.72 99.27,54 2.44,3.58 5.17,7.61 9.43,8.4 3.5,0.63 6.94,-1.17 10.01,-2.98 43.77,-25.85 79.01,-65.89 99.09,-112.6 -28.69,10.72 -57.82,21.54 -88.33,24.15 -30.52,2.62 -63.13,-3.95 -85.95,-24.38 -15.61,-13.97 -29.4,-35.26 -50.33,-34.26 -8.94,0.42 -17.01,5.14 -24.98,9.21 -26.23,13.38 -56.16,20.91 -85.33,16.84 -52.9,-7.38 -93.01,-49.99 -127.3,-90.94 -7.15,-8.53 -17.07,-18.04 -27.7,-14.76 -5.39,1.66 -9.22,6.27 -13.05,10.39 -23.15,24.88 -57.77,38.63 -91.69,36.42 -33.91,-2.21 -66.45,-20.34 -86.17,-48.02 -8.97,24.3 -31.53,43.06 -57.06,47.44 -25.527,4.39 -53.054,-5.77 -69.613,-25.7 -2.187,25.44 -20.554,87.81 4.387,104.25 23.074,15.2 72.736,-8.55 100.216,-3.51" /><path
         id="path156"
         style="fill:#f69362;fill-opacity:1;fill-rule:nonzero;stroke:none"
         d="m 1507.35,3611.1 c -0.11,2.34 -0.21,4.67 -0.29,6.99 -0.74,20.18 -0.94,40.39 -0.42,60.58 0.32,12.3 0.85,25 -2.89,36.52 -3.73,11.51 -13.02,21.62 -23.59,20.87 -14.67,-1.03 -22.48,-20.26 -26.39,-36.72 -21.51,-90.64 -19.44,-186.3 -16.36,-280.25 0.51,-15.49 16.33,-31.87 28.61,-37.27 14.29,-6.29 30.86,-2.33 44.93,2.84 21.35,7.85 58.26,21.44 66.44,56.53 6.25,26.8 -2.19,51.23 -20.05,68.83 -11.25,11.08 -24.25,20.13 -33.26,33.69 -12.5,18.8 -15.57,43.45 -16.73,67.39" /><path
         id="path158"
         style="fill:#ea524e;fill-opacity:1;fill-rule:nonzero;stroke:none"
         d="m 1526.77,3429.08 c -31.6,-13.72 -70.62,-20.41 -104.51,-19.56 3.19,-12.04 14.53,-21.71 27.64,-27.26 15.73,-6.67 35.76,-5.61 53.01,-5.83 9.61,-0.13 19.3,0.02 28.69,1.74 9.61,1.76 18.67,5.14 27.65,8.49 28.29,10.56 51.33,29.89 41.76,58.43 -4.77,14.23 -24.82,22.41 -40.92,25.18 4.7,-4.95 4.43,-12.29 1.07,-17.95 -3.37,-5.66 -9.3,-9.93 -15.44,-13.59 -5.91,-3.53 -12.26,-6.75 -18.95,-9.65" /><path
         id="path160"
         style="fill:#3a7b99;fill-opacity:1;fill-rule:nonzero;stroke:none"
         d="m 2048.08,1890.11 -640.86,361.22 -471.396,-836.35 640.856,-361.22 c 42.17,-23.76 95.62,-8.85 119.38,33.32 l 385.34,683.65 c 23.76,42.17 8.85,95.62 -33.32,119.38" /><path
         id="path162"
         style="fill:#fef6dd;fill-opacity:1;fill-rule:nonzero;stroke:none"
         d="m 2038.06,1877.62 c 28.84,-16.26 39.04,-52.82 22.78,-81.64 -16.25,-28.84 -52.8,-39.05 -81.64,-22.79 l -612.2,345.06 58.85,104.43 612.21,-345.06" /><path
         id="path164"
         style="fill:#1e3a54;fill-opacity:1;fill-rule:nonzero;stroke:none"
         d="m 1332.84,2119.36 651.22,-367.06 c 36.39,-20.5 82.67,-7.59 103.18,28.79 20.5,36.39 7.59,82.67 -28.79,103.18 l -651.23,367.06 -15.52,-27.55 651.22,-367.05 c 21.2,-11.94 28.73,-38.91 16.78,-60.11 -11.95,-21.2 -38.91,-28.72 -60.11,-16.78 l -651.23,367.05 -15.52,-27.53" /><path
         id="path166"
         style="fill:#f69362;fill-opacity:1;fill-rule:nonzero;stroke:none"
         d="m 1964.68,1522.26 c -5.02,11.14 -16.23,18.15 -27.48,22.92 -36.4,15.42 -76.57,13.43 -115.21,12.44 -17.32,-0.45 -81.11,-10.09 -88.88,8.25 -3.76,8.86 -0.69,19.23 4.36,27.41 5.28,8.56 12.7,15.78 21.39,20.83 13.11,7.63 28.48,10.12 42.87,14.93 24.28,8.12 46.79,23.96 58.61,46.66 8.51,16.36 10.51,36.44 4.83,53.72 -3.37,10.25 -15.69,14.11 -24.3,7.6 -24.64,-18.62 -50.37,-35.81 -76.99,-51.48 -30.46,-17.92 -65.46,-24.56 -98.84,-36.17 -17.38,-6.05 -34.87,-13.51 -47.86,-26.54 -10.16,-10.19 -16.96,-23.15 -24.32,-35.52 -26.11,-43.81 -60.78,-81.8 -95.19,-119.46 -6.94,-7.59 -14.25,-15.44 -23.88,-19.05 -11.11,-4.18 -23.08,-1.99 -34.6,1.86 -2.02,1.13 -4,2.16 -6.06,3.38 -94.24,55.39 -554.091,308.91 -658.474,322.64 0,0 54.254,388.44 197.625,679.84 l -364.679,343.71 c -25.61,-41.48 -47.664,-88.55 -53.661,-134.12 -16.48,-125.26 -177.371,-974.9 -102.293,-1057.81 75.082,-82.92 578.592,-255.86 782.432,-297.19 95.42,-19.34 179.39,-40.36 250.13,-52.77 23.25,-10.52 45.79,-22.64 69.61,-31.74 66.82,-25.55 140.32,-25.27 211.85,-24.67 8.53,0.08 17.44,0.24 25.02,4.14 15.82,8.16 19.93,28.72 31.5,42.24 9.27,10.82 23.3,16.95 31.7,28.46 9.71,13.28 10.1,31.01 15.8,46.45 8.72,23.59 29.48,40.83 40.06,63.65 7.74,16.7 9.71,35.75 18.31,52.03 7.44,14.09 19.38,25.22 28.33,38.4 8.95,13.19 14.84,30.42 8.29,44.96" /><path
         id="path168"
         style="fill:#ea524e;fill-opacity:1;fill-rule:nonzero;stroke:none"
         d="m 774.656,1776.68 c 0,0 54.254,388.44 197.625,679.84 l -364.679,343.71 c -25.61,-41.48 -47.664,-88.55 -53.661,-134.12 -16.48,-125.26 -177.371,-974.9 -102.293,-1057.81 28.86,-31.87 121.028,-77.04 235.125,-122.92 -2.14,12.55 -3.964,25.14 -5.175,37.8 -7.481,78.13 15.632,169.41 86.468,203.22 37.829,18.04 78.637,14.6 118.899,11.29 -49.453,21.44 -89.426,35.98 -112.309,38.99" /><path
         id="path170"
         style="fill:#fcce7b;fill-opacity:1;fill-rule:nonzero;stroke:none"
         d="m 985.316,2560.83 c 3.102,62.02 -0.914,123.44 -19.718,182.59 -14.243,44.79 -37.344,87.63 -72.102,119.27 -98.176,89.35 -225.332,55.08 -305.398,-36.97 -56.774,-65.28 -103.426,-139.8 -129.524,-222.68 -41.402,-131.5 -74.359,-265.66 -98.625,-401.36 -22.844,-127.79 -40.785,-256.06 -58.672,-384.41 -0.492,-3.55 -0.851,-7.59 1.489,-10.31 1.711,-1.98 4.437,-2.7 6.984,-3.32 133.84,-32.29 274.309,-32.92 411.676,-23.86 67.539,4.48 139.976,10.83 192.097,54.01 4.067,175.02 19.465,349.77 46.079,522.8 10.355,67.36 22.316,136.16 25.714,204.24" /><path
         id="path172"
         style="fill:#fab9c1;fill-opacity:1;fill-rule:nonzero;stroke:none"
         d="m 4813.21,1137.24 c -55.39,0 -100.3,-44.91 -100.3,-100.31 0,-55.391 44.91,-100.301 100.3,-100.301 H 5989.3 V 1137.24 H 4813.21" /><path
         id="path174"
         style="fill:#d95b8a;fill-opacity:1;fill-rule:nonzero;stroke:none"
         d="m 4760.03,1137.24 c -26.03,0 -47.12,-44.91 -47.12,-100.31 0,-55.391 21.09,-100.301 47.12,-100.301 h 552.5 v 200.611 h -552.5" /><path
         id="path176"
         style="fill:#992760;fill-opacity:1;fill-rule:nonzero;stroke:none"
         d="M 6040,910.18 H 4788.96 c -69.89,0 -126.75,56.859 -126.75,126.75 0,69.91 56.86,126.76 126.75,126.76 H 6040 v -52.9 H 4788.96 c -40.72,0 -73.84,-33.13 -73.84,-73.86 0,-40.719 33.12,-73.84 73.84,-73.84 H 6040 v -52.91" /><path
         id="path178"
         style="fill:#fab9c1;fill-opacity:1;fill-rule:nonzero;stroke:none"
         d="m 4813.21,883.73 c -55.39,0 -100.3,-44.91 -100.3,-100.3 0,-55.399 44.91,-100.309 100.3,-100.309 H 5989.3 V 883.73 H 4813.21" /><path
         id="path180"
         style="fill:#d95b8a;fill-opacity:1;fill-rule:nonzero;stroke:none"
         d="m 4773.89,883.73 c -33.68,0 -60.98,-44.91 -60.98,-100.3 0,-55.399 27.3,-100.309 60.98,-100.309 h 715 V 883.73 h -715" /><path
         id="path182"
         style="fill:#6e1e36;fill-opacity:1;fill-rule:nonzero;stroke:none"
         d="M 6040,656.672 H 4788.96 c -69.89,0 -126.75,56.859 -126.75,126.758 0,69.89 56.86,126.75 126.75,126.75 H 6040 V 857.281 H 4788.96 c -40.72,0 -73.84,-33.133 -73.84,-73.851 0,-40.719 33.12,-73.86 73.84,-73.86 H 6040 v -52.898" /></g></g></svg>